<?xml version="1.0" encoding="UTF-8"?>
<svg id="Layer_2" data-name="Layer 2" xmlns="http://www.w3.org/2000/svg" viewBox="0 0 530.65 530.65">
  <defs>
    <style>
      .cls-1, .cls-2 {
        stroke-width: 0px;
      }

      .cls-2 {
        fill: #fff;
      }
    </style>
  </defs>
  <g id="Layer_1-2" data-name="Layer 1">
    <g>
      <rect class="cls-1" width="530.65" height="530.65" rx="186.58" ry="186.58"/>
      <g>
        <path class="cls-2" d="M224.16,251.84c16.94,17.56,33.77,34.99,50.98,52.82l-19.78,19.76-83.3-85.16c-10.31-10.77-11.51-20.69-2.99-32.05h24.56v-8.25h-17.56c1.98-2.25,3.97-4.51,6-6.73h25.32v-9.62h-16.53c5.66-6.15,11.36-12.27,16.99-18.46,1-1.13,1.81-2.4,3.16-4.19-4.11-5-10.5-12.27-14.77-17.43-8.79,8.23-16.8,15.7-26.22,24.51-6.83-5.66-11.17-8.82-19.12-15.43,14.79-14.3,24.36-31.91,44.37-35.92,5.46-1.13,13.71,1.86,17.92,5.88,22.45,21.33,44.05,43.56,65.89,65.52.78.78,1.08,2.06,2.64,5.22-18.71,19.37-37.81,39.13-57.57,59.55Z"/>
        <path class="cls-2" d="M179.16,265.12c-9.57,12.17-17.41,25.17-34.38,25.02-3.26-.02-6.95-.59-10.28-1.79l-70.54-70.54c4.7-5.26,9.48-10.6,15.28-17.12l61.68,61.68c7.91-6.83,13.03-11.21,19.61-16.87,6.27,6.59,12.07,12.71,18.63,19.61Z"/>
        <path class="cls-2" d="M286.5,163.15c14.81.05,27.57-7.79,27.67-27.46.08-16.22-11.31-28.43-26.71-28.56-16.12-.14-28.37,11.31-28.55,26.69-.85,21.38,12.74,29.28,27.59,29.33Z"/>
        <path class="cls-2" d="M352.32,210.68l-36.04,36.04c-7,1.69-15.65,1.54-19.49-1.52-8.2-6.51-13.64-12.56-22.18-20.76l19.54-19.54,1.49-1.47,14.59,14.59c7.84-8.64,14.94-16.5,23.43-25.93,6.51,6.49,12.17,12.12,18.66,18.59Z"/>
        <path class="cls-2" d="M361.31,331.68c1.33-8.92,2.52-17.12,3.77-25.31,2.89-18.81,5.86-37.6,8.69-56.41,2.1-14,3.88-28.05,6.09-42.03,1.75-11.07,2.9-22.38,6.13-33.03,9.07-29.84,29.45-48.87,59.11-57.96,4.3-1.32,8.81-2.69,13.57-.81,6,2.37,9.51,6.87,9.66,13.29.15,6.5-2.95,11.54-8.74,13.94-2.02.84-4.15,1.45-6.26,2.05-22.64,6.46-36.08,21.56-40.88,44.3-2.01,9.53-2.98,19.29-4.45,28.94-2.84,18.57-5.76,37.12-8.55,55.7-2.14,14.24-4.12,28.5-6.18,42.75-.41,2.83-.89,5.65-1.4,8.92,2.32,0,4.23.27,6.05-.04,25-4.24,47.67,12.8,53.64,33.46,10.69,36.98-17.86,63.66-43.73,63.92-2.94.03-5.87.15-8.81.15-103.31,0-206.62,0-309.93,0-2.45,0-4.9.03-7.34-.14-9.66-.66-17.54-7.51-19.03-16.42-1.77-10.66,2.42-19.79,11.84-23.51,5.59-2.21,11.72-3.21,17.69-4.25,26.19-4.57,52.42-8.92,78.62-13.43,10.57-1.82,21.1-3.91,31.67-5.75,17.3-3.02,34.62-5.88,51.91-8.9,17.05-2.98,34.08-6.11,51.13-9.1,16.33-2.87,32.69-5.63,49.02-8.5,2.14-.38,4.21-1.14,6.69-1.83Z"/>
        <line class="cls-2" x1="352.32" y1="210.68" x2="316.28" y2="246.73"/>
      </g>
    </g>
  </g>
</svg>