<?xml version="1.0" encoding="UTF-8"?>
<svg id="Layer_2" data-name="Layer 2" xmlns="http://www.w3.org/2000/svg" viewBox="0 0 89.08 89.08">
  <defs>
    <style>
      .cls-1 {
        stroke-width: 0px;
      }
    </style>
  </defs>
  <g id="Layer_1-2" data-name="Layer 1">
    <g>
      <path class="cls-1" d="M57.75,3c15.62,0,28.32,12.71,28.32,28.32v26.43c0,15.62-12.71,28.32-28.32,28.32h-26.43c-15.62,0-28.32-12.71-28.32-28.32v-26.43C3,15.71,15.71,3,31.32,3h26.43M57.75,0h-26.43C14.02,0,0,14.02,0,31.32v26.43c0,17.3,14.02,31.32,31.32,31.32h26.43c17.3,0,31.32-14.02,31.32-31.32v-26.43c0-17.3-14.02-31.32-31.32-31.32h0Z"/>
      <g>
        <path class="cls-1" d="M37.63,42.28c2.84,2.95,5.67,5.87,8.56,8.87l-3.32,3.32-13.98-14.3c-1.73-1.81-1.93-3.47-.5-5.38h4.12v-1.39h-2.95c.33-.38.67-.76,1.01-1.13h4.25v-1.62h-2.77c.95-1.03,1.91-2.06,2.85-3.1.17-.19.3-.4.53-.7-.69-.84-1.76-2.06-2.48-2.93-1.48,1.38-2.82,2.63-4.4,4.11-1.15-.95-1.87-1.48-3.21-2.59,2.48-2.4,4.09-5.36,7.45-6.03.92-.19,2.3.31,3.01.99,3.77,3.58,7.39,7.31,11.06,11,.13.13.18.35.44.88-3.14,3.25-6.35,6.57-9.66,10Z"/>
        <path class="cls-1" d="M30.07,44.5c-1.61,2.04-2.92,4.23-5.77,4.2-.55,0-1.17-.1-1.73-.3l-11.84-11.84c.79-.88,1.59-1.78,2.56-2.87l10.35,10.35c1.33-1.15,2.19-1.88,3.29-2.83,1.05,1.11,2.03,2.13,3.13,3.29Z"/>
        <path class="cls-1" d="M48.09,27.39c2.49,0,4.63-1.31,4.64-4.61.01-2.72-1.9-4.77-4.48-4.79-2.71-.02-4.76,1.9-4.79,4.48-.14,3.59,2.14,4.91,4.63,4.92Z"/>
        <path class="cls-1" d="M59.14,35.37l-6.05,6.05c-1.18.28-2.63.26-3.27-.25-1.38-1.09-2.29-2.11-3.72-3.49l3.28-3.28.25-.25,2.45,2.45c1.32-1.45,2.51-2.77,3.93-4.35,1.09,1.09,2.04,2.03,3.13,3.12Z"/>
        <path class="cls-1" d="M60.65,55.68c.22-1.5.42-2.87.63-4.25.48-3.16.98-6.31,1.46-9.47.35-2.35.65-4.71,1.02-7.05.29-1.86.49-3.76,1.03-5.54,1.52-5.01,4.94-8.2,9.92-9.73.72-.22,1.48-.45,2.28-.14,1.01.4,1.6,1.15,1.62,2.23.02,1.09-.5,1.94-1.47,2.34-.34.14-.7.24-1.05.34-3.8,1.08-6.06,3.62-6.86,7.44-.34,1.6-.5,3.24-.75,4.86-.48,3.12-.97,6.23-1.43,9.35-.36,2.39-.69,4.78-1.04,7.18-.07.48-.15.95-.24,1.5.39,0,.71.04,1.02,0,4.2-.71,8,2.15,9,5.62,1.79,6.21-3,10.69-7.34,10.73-.49,0-.99.03-1.48.03-17.34,0-34.68,0-52.03,0-.41,0-.82,0-1.23-.02-1.62-.11-2.95-1.26-3.19-2.76-.3-1.79.41-3.32,1.99-3.95.94-.37,1.97-.54,2.97-.71,4.4-.77,8.8-1.5,13.2-2.26,1.77-.31,3.54-.66,5.32-.97,2.9-.51,5.81-.99,8.71-1.49,2.86-.5,5.72-1.03,8.58-1.53,2.74-.48,5.49-.94,8.23-1.43.36-.06.71-.19,1.12-.31Z"/>
        <line class="cls-1" x1="59.14" y1="35.37" x2="53.09" y2="41.42"/>
      </g>
    </g>
  </g>
</svg>