<?xml version="1.0" encoding="UTF-8"?>
<svg id="Layer_2" data-name="Layer 2" xmlns="http://www.w3.org/2000/svg" viewBox="0 0 190.64 148.56">
  <defs>
    <style>
      .cls-1 {
        fill: #fff;
        stroke-width: 0px;
      }
    </style>
  </defs>
  <g id="Layer_1-2" data-name="Layer 1">
    <g>
      <path class="cls-1" d="M75.99,67.95c7.96,8.24,15.85,16.43,23.94,24.8l-9.29,9.28-39.11-39.99c-4.84-5.06-5.4-9.72-1.4-15.05h11.53v-3.87h-8.24c.93-1.06,1.86-2.12,2.82-3.16h11.89v-4.52h-7.76c2.66-2.89,5.33-5.76,7.98-8.67.47-.53.85-1.13,1.48-1.97-1.93-2.35-4.93-5.76-6.93-8.19-4.13,3.86-7.89,7.37-12.31,11.51-3.21-2.66-5.24-4.14-8.98-7.24,6.94-6.71,11.44-14.98,20.83-16.87,2.56-.53,6.44.87,8.42,2.76,10.54,10.01,20.68,20.45,30.94,30.77.37.37.51.97,1.24,2.45-8.78,9.09-17.75,18.37-27.03,27.96Z"/>
      <path class="cls-1" d="M54.86,74.18c-4.5,5.71-8.17,11.82-16.14,11.75-1.53-.01-3.27-.28-4.83-.84L.76,51.97c2.21-2.47,4.45-4.98,7.17-8.04l28.96,28.96c3.71-3.21,6.12-5.27,9.21-7.92,2.94,3.09,5.67,5.97,8.75,9.21Z"/>
      <path class="cls-1" d="M105.26,26.31c6.95.02,12.95-3.66,12.99-12.9C118.29,5.79,112.94.06,105.71,0c-7.57-.07-13.32,5.31-13.4,12.53-.4,10.04,5.98,13.75,12.95,13.77Z"/>
      <path class="cls-1" d="M136.17,48.63l-16.92,16.92c-3.29.79-7.35.72-9.15-.71-3.85-3.06-6.4-5.9-10.42-9.75l9.17-9.17.7-.69,6.85,6.85c3.68-4.06,7.01-7.75,11-12.18,3.06,3.05,5.71,5.69,8.76,8.73Z"/>
      <path class="cls-1" d="M140.39,105.44c.62-4.19,1.18-8.04,1.77-11.88,1.35-8.83,2.75-17.65,4.08-26.49.99-6.57,1.82-13.17,2.86-19.73.82-5.2,1.36-10.51,2.88-15.51,4.26-14.01,13.83-22.94,27.75-27.22,2.02-.62,4.14-1.26,6.37-.38,2.82,1.11,4.47,3.23,4.53,6.24.07,3.05-1.39,5.42-4.1,6.55-.95.39-1.95.68-2.94.96-10.63,3.03-16.94,10.12-19.2,20.8-.95,4.48-1.4,9.06-2.09,13.59-1.33,8.72-2.7,17.43-4.01,26.15-1,6.69-1.93,13.38-2.9,20.07-.19,1.33-.42,2.65-.66,4.19,1.09,0,1.99.13,2.84-.02,11.74-1.99,22.38,6.01,25.19,15.71,5.02,17.36-8.39,29.89-20.53,30.01-1.38.01-2.76.07-4.14.07-48.51,0-97.02,0-145.53,0-1.15,0-2.3.01-3.45-.07-4.53-.31-8.24-3.52-8.93-7.71-.83-5,1.14-9.29,5.56-11.04,2.62-1.04,5.5-1.51,8.31-2,12.3-2.15,24.61-4.19,36.92-6.31,4.96-.85,9.91-1.83,14.87-2.7,8.12-1.42,16.25-2.76,24.38-4.18,8.01-1.4,16-2.87,24.01-4.27,7.67-1.35,15.35-2.64,23.02-3.99,1-.18,1.98-.53,3.14-.86Z"/>
      <line class="cls-1" x1="136.17" y1="48.63" x2="119.24" y2="65.55"/>
    </g>
  </g>
</svg>