<?xml version="1.0" encoding="UTF-8"?>
<svg id="Layer_2" data-name="Layer 2" xmlns="http://www.w3.org/2000/svg" viewBox="0 0 77.21 60.17">
  <defs>
    <style>
      .cls-1 {
        stroke-width: 0px;
      }
    </style>
  </defs>
  <g id="Layer_1-2" data-name="Layer 1">
    <g>
      <path class="cls-1" d="M30.78,27.52c3.22,3.34,6.42,6.65,9.7,10.04l-3.76,3.76-15.84-16.2c-1.96-2.05-2.19-3.93-.57-6.1h4.67v-1.57h-3.34c.38-.43.75-.86,1.14-1.28h4.82v-1.83h-3.14c1.08-1.17,2.16-2.33,3.23-3.51.19-.21.34-.46.6-.8-.78-.95-2-2.33-2.81-3.32-1.67,1.56-3.19,2.98-4.99,4.66-1.3-1.08-2.12-1.68-3.64-2.93,2.81-2.72,4.63-6.07,8.44-6.83,1.04-.21,2.61.35,3.41,1.12,4.27,4.06,8.38,8.28,12.53,12.46.15.15.2.39.5.99-3.56,3.68-7.19,7.44-10.95,11.33Z"/>
      <path class="cls-1" d="M22.22,30.05c-1.82,2.31-3.31,4.79-6.54,4.76-.62,0-1.32-.11-1.96-.34L.31,21.05c.89-1,1.8-2.02,2.91-3.26l11.73,11.73c1.5-1.3,2.48-2.13,3.73-3.21,1.19,1.25,2.3,2.42,3.54,3.73Z"/>
      <path class="cls-1" d="M42.63,10.66c2.82,0,5.24-1.48,5.26-5.22C47.91,2.35,45.74.03,42.82,0c-3.07-.03-5.4,2.15-5.43,5.08-.16,4.07,2.42,5.57,5.25,5.58Z"/>
      <path class="cls-1" d="M55.15,19.69l-6.85,6.85c-1.33.32-2.98.29-3.71-.29-1.56-1.24-2.59-2.39-4.22-3.95l3.72-3.72.28-.28,2.78,2.78c1.49-1.64,2.84-3.14,4.46-4.93,1.24,1.23,2.31,2.31,3.55,3.53Z"/>
      <path class="cls-1" d="M56.86,42.71c.25-1.7.48-3.26.72-4.81.55-3.58,1.11-7.15,1.65-10.73.4-2.66.74-5.33,1.16-7.99.33-2.1.55-4.26,1.17-6.28,1.73-5.68,5.6-9.29,11.24-11.02.82-.25,1.68-.51,2.58-.15,1.14.45,1.81,1.31,1.84,2.53.03,1.24-.56,2.2-1.66,2.65-.38.16-.79.28-1.19.39-4.31,1.23-6.86,4.1-7.77,8.43-.38,1.81-.57,3.67-.85,5.5-.54,3.53-1.1,7.06-1.63,10.59-.41,2.71-.78,5.42-1.18,8.13-.08.54-.17,1.08-.27,1.7.44,0,.81.05,1.15,0,4.75-.81,9.07,2.44,10.2,6.36,2.03,7.03-3.4,12.11-8.32,12.16-.56,0-1.12.03-1.68.03-19.65,0-39.29,0-58.94,0-.47,0-.93,0-1.4-.03-1.84-.13-3.34-1.43-3.62-3.12-.34-2.03.46-3.76,2.25-4.47,1.06-.42,2.23-.61,3.36-.81,4.98-.87,9.97-1.7,14.95-2.55,2.01-.35,4.01-.74,6.02-1.09,3.29-.57,6.58-1.12,9.87-1.69,3.24-.57,6.48-1.16,9.72-1.73,3.11-.55,6.22-1.07,9.32-1.62.41-.07.8-.22,1.27-.35Z"/>
      <line class="cls-1" x1="55.15" y1="19.69" x2="48.3" y2="26.55"/>
    </g>
  </g>
</svg>